<?xml version="1.0" encoding="utf-8"?>
<!-- Generator: Adobe Illustrator 15.0.1, SVG Export Plug-In  -->
<!DOCTYPE svg [
	<!ENTITY ns_flows "http://ns.adobe.com/Flows/1.0/">
]>
<svg instance-name="bomb" version="1.2" baseProfile="tiny"
	 xmlns="http://www.w3.org/2000/svg" xmlns:xlink="http://www.w3.org/1999/xlink" xmlns:a="http://ns.adobe.com/AdobeSVGViewerExtensions/3.0/"
	 x="0px" y="0px" width="72px" height="34px" viewBox="-2.586 -2.633 72 34" overflow="visible" xml:space="preserve">
<defs>
</defs>
<path d="M2.065,16.103h5.048c1,0,1.745,0.041,2.236,0.125c0.491,0.083,0.93,0.258,1.318,0.521c0.388,0.266,0.711,0.617,0.97,1.057
	s0.387,0.931,0.387,1.478c0,0.592-0.159,1.134-0.478,1.629c-0.318,0.493-0.751,0.863-1.297,1.11c0.77,0.225,1.362,0.606,1.775,1.146
	c0.414,0.539,0.621,1.174,0.621,1.904c0,0.573-0.134,1.132-0.401,1.675c-0.267,0.543-0.632,0.977-1.094,1.302
	c-0.462,0.324-1.033,0.524-1.709,0.599c-0.426,0.047-1.451,0.075-3.076,0.087H2.065V16.103z M4.615,18.205v2.921h1.671
	c0.994,0,1.612-0.015,1.853-0.043c0.436-0.053,0.78-0.203,1.03-0.453s0.375-0.577,0.375-0.986c0-0.391-0.108-0.708-0.324-0.952
	c-0.215-0.244-0.535-0.393-0.96-0.443c-0.252-0.029-0.979-0.043-2.18-0.043H4.615z M4.615,23.229v3.378h2.361
	c0.919,0,1.502-0.027,1.749-0.078c0.379-0.068,0.688-0.236,0.927-0.504c0.238-0.268,0.357-0.625,0.357-1.073
	c0-0.379-0.092-0.701-0.276-0.965s-0.45-0.457-0.797-0.578c-0.348-0.119-1.102-0.18-2.262-0.18H4.615z"/>
<path d="M40.843,28.734V16.103h3.817l2.292,8.616l2.266-8.616h3.826v12.632h-2.369v-9.943l-2.508,9.943h-2.456l-2.498-9.943v9.943
	H40.843z"/>
<path d="M56.247,16.103h5.049c0.999,0,1.745,0.041,2.236,0.125c0.49,0.083,0.93,0.258,1.318,0.521
	c0.387,0.266,0.711,0.617,0.969,1.057c0.259,0.439,0.388,0.931,0.388,1.478c0,0.592-0.159,1.134-0.478,1.629
	c-0.318,0.493-0.751,0.863-1.297,1.11c0.77,0.225,1.361,0.606,1.774,1.146c0.414,0.539,0.621,1.174,0.621,1.904
	c0,0.573-0.135,1.132-0.401,1.675s-0.632,0.977-1.094,1.302c-0.463,0.324-1.033,0.524-1.711,0.599
	c-0.426,0.047-1.451,0.075-3.076,0.087h-4.299V16.103z M58.798,18.205v2.921h1.671c0.994,0,1.611-0.015,1.854-0.043
	c0.435-0.053,0.779-0.203,1.028-0.453c0.25-0.25,0.375-0.577,0.375-0.986c0-0.391-0.107-0.708-0.323-0.952
	c-0.215-0.244-0.535-0.393-0.961-0.443c-0.253-0.029-0.979-0.043-2.18-0.043H58.798z M58.798,23.229v3.378h2.36
	c0.918,0,1.502-0.027,1.749-0.078c0.379-0.068,0.688-0.236,0.926-0.504c0.238-0.268,0.357-0.625,0.357-1.073
	c0-0.379-0.091-0.701-0.275-0.965c-0.184-0.264-0.448-0.457-0.797-0.578c-0.348-0.119-1.102-0.18-2.262-0.18H58.798z"/>
<circle cx="26.138" cy="16.111" r="12.476"/>
<linearGradient id="SVGID_1_" gradientUnits="userSpaceOnUse" x1="26.1685" y1="4.4912" x2="26.1049" y2="15.5898">
	<stop  offset="0" style="stop-color:#FFFFFF;stop-opacity:0.5"/>
	<stop  offset="1" style="stop-color:#FFFFFF;stop-opacity:0"/>
</linearGradient>
<ellipse fill="url(#SVGID_1_)" cx="26.138" cy="9.781" rx="8.483" ry="5.771"/>
<path fill="#FFFFFF" stroke="#666666" stroke-width="2" stroke-miterlimit="10" d="M16.054,6.161c0,0-6.586-6.975-11.441-1.548"/>
<rect x="14.007" y="5.803" transform="matrix(0.7013 -0.7128 0.7128 0.7013 0.084 14.013)" width="5.514" height="2.207"/>
<polygon fill="#FF0000" points="9.227,5.648 6.547,5.975 7.144,8.607 5.018,6.941 3.578,9.227 3.252,6.548 0.62,7.145 2.284,5.017 
	0,3.578 2.68,3.252 2.083,0.619 4.208,2.284 5.648,0 5.974,2.679 8.607,2.082 6.942,4.208 "/>
<polygon fill="#F7931E" points="8.296,5.439 6.157,5.7 6.633,7.802 4.937,6.472 3.787,8.296 3.527,6.157 1.425,6.634 2.754,4.936 
	0.931,3.787 3.07,3.526 2.593,1.425 4.29,2.754 5.439,0.931 5.7,3.069 7.802,2.593 6.473,4.29 "/>
</svg>
