<?xml version="1.0" encoding="utf-8"?>
<!-- Generator: Adobe Illustrator 15.0.1, SVG Export Plug-In  -->
<!DOCTYPE svg PUBLIC "-//W3C//DTD SVG 1.1//EN" "http://www.w3.org/Graphics/SVG/1.1/DTD/svg11.dtd" [
	<!ENTITY ns_flows "http://ns.adobe.com/Flows/1.0/">
]>
<svg instance-name="gameOver"
	 version="1.1"
	 xmlns="http://www.w3.org/2000/svg" xmlns:xlink="http://www.w3.org/1999/xlink" xmlns:a="http://ns.adobe.com/AdobeSVGViewerExtensions/3.0/"
	 x="0px" y="0px" width="254px" height="243px" viewBox="2 3 254 243" overflow="visible" enable-background="new 2 3 254 243"
	 xml:space="preserve">
<defs>
</defs>
<path opacity="0.9" fill="#FFFFFF" stroke="#666666" stroke-width="4" stroke-miterlimit="10" d="M256,244c0,1.104-0.896,2-2,2H4
	c-1.104,0-2-0.896-2-2V4c0-1.104,0.896-2,2-2h250c1.104,0,2,0.896,2,2V244z"/>
<text transform="matrix(1 0 0 1 12.001 47.6719)" font-family="'Arial-BoldMT'" font-size="36.2685">GAME OVER!</text>
<text transform="matrix(1 0 0 1 34.2803 92)"><tspan x="0" y="0" fill="#4D4D4D" font-family="'ArialMT'" font-size="12">Enter a nickname below to see how</tspan><tspan x="12.674" y="14.4" fill="#4D4D4D" font-family="'ArialMT'" font-size="12">you rank against other players:</tspan></text>
<path fill="#FFFFFF" stroke="#000000" stroke-miterlimit="10" d="M230.5,150.203c0,0.716-0.896,1.297-2,1.297h-199
	c-1.104,0-2-0.581-2-1.297v-31.406c0-0.716,0.896-1.297,2-1.297h199c1.104,0,2,0.581,2,1.297V150.203z"/>
<text instance-name="gameOver.yourNameTxt" transform="matrix(1 0 0 1 53.3491 142.9824)" fill="#FF00FF" font-family="'Arial-BoldMT'" font-size="23.7785">YOUR NAME</text>
<path instance-name="gameOver.submitBtn" fill="#4D4D4D" d="M125,232c0,1.104-0.896,2-2,2H18c-1.104,0-2-0.896-2-2v-33c0-1.104,0.896-2,2-2h105c1.104,0,2,0.896,2,2V232
	z"/>
<text transform="matrix(1 0 0 1 41.5 220)" fill="#FFFFFF" font-family="'ArialMT'" font-size="14">SUBMIT</text>
<path instance-name="gameOver.quitBtn" fill="#4D4D4D" d="M244,232c0,1.104-0.896,2-2,2H137c-1.104,0-2-0.896-2-2v-33c0-1.104,0.896-2,2-2h105c1.104,0,2,0.896,2,2
	V232z"/>
<text transform="matrix(1 0 0 1 173 220)" fill="#FFFFFF" font-family="'ArialMT'" font-size="14">QUIT</text>
</svg>
