<?xml version="1.0" encoding="utf-8"?>
<!-- Generator: Adobe Illustrator 15.0.1, SVG Export Plug-In  -->
<!DOCTYPE svg PUBLIC "-//W3C//DTD SVG 1.1//EN" "http://www.w3.org/Graphics/SVG/1.1/DTD/svg11.dtd" [
	<!ENTITY ns_flows "http://ns.adobe.com/Flows/1.0/">
]>
<svg instance-name="startMenu"
	 version="1.1"
	 xmlns="http://www.w3.org/2000/svg" xmlns:xlink="http://www.w3.org/1999/xlink" xmlns:a="http://ns.adobe.com/AdobeSVGViewerExtensions/3.0/"
	 x="0px" y="0px" width="400px" height="600px" viewBox="0 0.233 400 600"
	 overflow="visible" enable-background="new 0 0.233 400 600" xml:space="preserve">

<rect fill="#eeeeee" width="400" height="600"/>
<path instance-name="startBtn" fill="#4D4D4D" stroke="#B3B3B3" stroke-miterlimit="10" d="M252.5,229.5c0,1.104-1.343,2-3,2h-99c-1.657,0-3-0.896-3-2v-21
	c0-1.104,1.343-2,3-2h99c1.657,0,3,0.896,3,2V229.5z"/>
<text instance-name="startGameTxt" transform="matrix(1 0 0 1 161.2334 223.5879)" fill="#FFFFFF" font-family="'Arial'" font-size="12">START GAME</text>
<path instance-name="highScoresBtn" fill="#4D4D4D" stroke="#B3B3B3" stroke-miterlimit="10" d="M252.5,257.5c0,1.104-1.337,2-2.986,2h-99.028
	c-1.649,0-2.986-0.896-2.986-2v-21c0-1.104,1.337-2,2.986-2h99.028c1.649,0,2.986,0.896,2.986,2V257.5z"/>
<text transform="matrix(1 0 0 1 158.2334 251.5879)" fill="#FFFFFF" font-family="'Arial'" font-size="12">HIGH SCORES</text>
<text transform="matrix(1 0 0 1 179.9907 595)" font-family="'Courier'" font-size="10">phoboslab.org/ztype</text>
<text transform="matrix(1 0 0 1 105.9907 595)" fill="#999999" font-family="'Courier'" font-size="10">Original at:</text>

</svg>
