<?xml version="1.0" encoding="utf-8"?>
<!-- Generator: Adobe Illustrator 14.0.0, SVG Export Plug-In  -->
<!DOCTYPE svg PUBLIC "-//W3C//DTD SVG 1.1//EN" "http://www.w3.org/Graphics/SVG/1.1/DTD/svg11.dtd" [
	<!ENTITY ns_flows "http://ns.adobe.com/Flows/1.0/">
]>
<svg version="1.1"
	 xmlns="http://www.w3.org/2000/svg" xmlns:xlink="http://www.w3.org/1999/xlink" xmlns:a="http://ns.adobe.com/AdobeSVGViewerExtensions/3.0/"
	 x="0px" y="0px" width="184px" height="188px" viewBox="-0.917 -4.643 184 188" enable-background="new -0.917 -4.643 184 188"
	 xml:space="preserve">
<defs>
</defs>
<linearGradient id="SVGID_1_" gradientUnits="userSpaceOnUse" x1="17.0898" y1="23.083" x2="88.6932" y2="55.7435">
	<stop  offset="0" style="stop-color:#FFFFFF"/>
	<stop  offset="0.1042" style="stop-color:#FAFAFA"/>
	<stop  offset="0.2279" style="stop-color:#ECECEC"/>
	<stop  offset="0.3614" style="stop-color:#D4D4D4"/>
	<stop  offset="0.502" style="stop-color:#B2B2B2"/>
	<stop  offset="0.6482" style="stop-color:#878787"/>
	<stop  offset="0.799" style="stop-color:#525252"/>
	<stop  offset="0.9508" style="stop-color:#151515"/>
	<stop  offset="1" style="stop-color:#000000"/>
</linearGradient>
<rect x="7.932" y="0.5" fill="url(#SVGID_1_)" stroke="#000000" width="81.784" height="74.116"/>
<radialGradient id="SVGID_2_" cx="29.6074" cy="78.7837" r="27.9456" gradientTransform="matrix(1.6101 0 0 1.6101 -0.6607 -0.3046)" gradientUnits="userSpaceOnUse">
	<stop  offset="0" style="stop-color:#FFFFFF"/>
	<stop  offset="0.2172" style="stop-color:#FCFCFC"/>
	<stop  offset="0.3528" style="stop-color:#F4F4F4"/>
	<stop  offset="0.4661" style="stop-color:#E5E5E5"/>
	<stop  offset="0.5672" style="stop-color:#D1D1D1"/>
	<stop  offset="0.66" style="stop-color:#B6B6B6"/>
	<stop  offset="0.7469" style="stop-color:#959595"/>
	<stop  offset="0.8292" style="stop-color:#6E6E6E"/>
	<stop  offset="0.9078" style="stop-color:#404040"/>
	<stop  offset="0.9808" style="stop-color:#0E0E0E"/>
	<stop  offset="1" style="stop-color:#000000"/>
</radialGradient>
<polygon fill="url(#SVGID_2_)" stroke="#000000" points="76.785,169.127 48.016,154.937 20.017,170.59 24.623,138.844 
	1.083,117.052 32.699,111.624 46.149,82.501 61.083,110.892 92.936,114.686 70.549,137.661 "/>
<line fill="none" stroke="#000000" x1="105.893" y1="2.008" x2="174.897" y2="2.008"/>
<line fill="none" stroke="#000000" stroke-dasharray="4" x1="105.893" y1="154.968" x2="174.897" y2="154.968"/>
<line fill="none" stroke="#000000" stroke-dasharray="2" x1="105.893" y1="164.628" x2="174.897" y2="164.628"/>
<line fill="none" stroke="#000000" stroke-width="2" stroke-linecap="round" x1="105.893" y1="10.059" x2="174.897" y2="10.058"/>
<line fill="none" stroke="#000000" stroke-width="3" stroke-linecap="square" x1="105.893" y1="18.109" x2="174.897" y2="18.109"/>
<polyline fill="none" stroke="#000000" stroke-width="2" points="105.893,26.16 140.395,39.194 174.897,26.16 "/>
<path fill="none" stroke="#000000" stroke-width="2" d="M105.893,34.21c0,0,25.282,13.034,34.502,13.034
	c9.221,0,34.502-13.034,34.502-13.034"/>
<polyline fill="none" stroke="#000000" points="105.893,119.392 105.893,142.394 119.949,119.392 "/>
<polyline fill="none" stroke="#000000" stroke-linejoin="round" points="128.435,119.392 128.435,142.394 142.491,119.392 "/>
<polyline fill="none" stroke="#000000" stroke-linejoin="bevel" points="150.976,119.392 150.976,142.394 165.032,119.392 "/>
<text transform="matrix(1 0 0 1 105.894 74.6191)" font-family="'MyriadPro-Regular'" font-size="19.3213">test1</text>
<text transform="matrix(1 0 0 1 105.894 97.1606)" font-family="'Nobel-Book'" font-size="19.3213">test2</text>
</svg>
